<svg xmlns="http://www.w3.org/2000/svg" viewBox="0 0 32 32" fill="none">
  <path d="M15.9829 1.29923C19.8776 1.29923 23.6128 2.84806 26.3667 5.60499C29.1207 8.36192 30.6679 12.1011 30.6679 16C30.6679 19.8989 29.1207 23.6381 26.3667 26.395C23.6128 29.1519 19.8776 30.7008 15.9829 30.7008C12.0884 30.6999 8.35372 29.1508 5.59993 26.3941C2.84614 23.6373 1.2987 19.8986 1.29784 16C1.29784 14.0695 1.67767 12.1578 2.41566 10.3743C3.15365 8.59068 4.23535 6.97008 5.59898 5.60499C6.96261 4.23989 8.58146 3.15704 10.3631 2.41826C12.1448 1.67948 14.0544 1.29923 15.9829 1.29923ZM15.9829 0C11.7455 0.00515731 7.6832 1.69253 4.68695 4.69199C1.6907 7.69146 0.00515178 11.7581 0 16C0.00515178 20.2419 1.6907 24.3086 4.68695 27.308C7.6832 30.3075 11.7455 31.9948 15.9829 32C20.2202 31.9948 24.2825 30.3075 27.2788 27.308C30.275 24.3086 31.9606 20.2419 31.9657 16C31.9606 11.7581 30.275 7.69146 27.2788 4.69199C24.2825 1.69253 20.2202 0.00515731 15.9829 0Z" fill="black"/>
  <path d="M15.8819 9.13281C12.8531 9.13281 10.3906 11.5953 10.3906 14.6175C10.3906 15.829 11.1939 17.5211 12.7741 19.6479C13.9461 21.2215 15.1181 22.4593 15.2498 22.5976C15.4144 22.7688 15.6449 22.8676 15.8819 22.8676H15.8951C16.1453 22.8676 16.3823 22.7556 16.5469 22.5713L18.1205 20.7672V20.754C19.1872 19.4569 19.997 18.2915 20.537 17.2907C21.0966 16.2504 21.3797 15.3483 21.3797 14.6175C21.3732 11.5953 18.9106 9.13281 15.8819 9.13281ZM15.8819 17.1788C14.4663 17.1788 13.314 16.0265 13.314 14.6109C13.314 13.1953 14.4663 12.0431 15.8819 12.0431C17.2975 12.0431 18.4497 13.1953 18.4497 14.6109C18.4497 16.0265 17.2975 17.1788 15.8819 17.1788Z" fill="black"/>
</svg>